<?xml version="1.0" encoding="UTF-8" standalone="no"?>
<!DOCTYPE svg PUBLIC "-//W3C//DTD SVG 1.1//EN" "http://www.w3.org/Graphics/SVG/1.1/DTD/svg11.dtd">
<svg width="100%" height="100%" viewBox="0 0 2815 2729" version="1.1" xmlns="http://www.w3.org/2000/svg" xmlns:xlink="http://www.w3.org/1999/xlink" xml:space="preserve" xmlns:serif="http://www.serif.com/" style="fill-rule:evenodd;clip-rule:evenodd;stroke-linecap:round;stroke-linejoin:round;stroke-miterlimit:1.5;">
    <g transform="matrix(1,0,0,1,-844.243,-966.605)">
        <g id="different" transform="matrix(0.824724,0,0,0.809389,855.257,868.066)">
            <g transform="matrix(1.12858,0,0,1.12858,-55.483,-626.503)">
                <circle cx="1547.65" cy="2067.98" r="1385.32" style="fill:rgb(255,237,174);"/>
            </g>
            <g transform="matrix(0.904956,0,0,0.922101,-344.988,-367.35)">
                <circle cx="2250" cy="2250" r="1556.12" style="fill:rgb(56,44,50);"/>
            </g>
            <g transform="matrix(0.826378,0,0,0.842035,-168.188,-187.201)">
                <circle cx="2250" cy="2250" r="1556.12" style="fill:rgb(234,35,59);"/>
            </g>
            <g transform="matrix(1.1633,0.0901899,-0.0868672,1.1633,-116.581,8.48148)">
                <g id="Layer4">
                    <path d="M320.589,2969.11C320.589,2969.11 346.993,2889.23 426.305,2828.18C472.278,2792.8 533.99,2788.98 600.207,2758.1C673.461,2723.93 774.445,2584.49 756.388,2471.53C748.09,2419.62 760.971,2420.67 802.453,2358.44C843.935,2296.2 2263.14,817.18 2712.57,461.874C3162,106.568 3020.24,-82.176 2921.3,-120.781C2822.36,-159.385 2800.9,10.526 2550.55,312.226C2300.2,613.925 818.412,2103.78 717.992,2217.26C613.236,2335.63 593.882,2305.54 514.237,2347.82C453.328,2380.16 408.015,2414.48 372.698,2463.59C296.946,2568.92 274.83,2725.82 320.589,2969.11Z" style="fill:rgb(56,44,50);stroke:rgb(56,44,50);stroke-width:1.43px;"/>
                </g>
            </g>
            <g transform="matrix(0.838668,0,0,0.560903,-309.574,678.079)">
                <path d="M1875.44,643.601L1875.44,643.601C1732.04,643.601 1594.5,730.395 1493.1,884.887C1391.7,1039.38 1334.73,1248.92 1334.73,1467.4L1334.73,2966.99L1165.89,3297.43L1586.06,3594.44L2082.66,3737.83L1875.44,3116.16L1875.44,643.601Z" style="fill:rgb(234,35,59);"/>
            </g>
            <g transform="matrix(1.03064,0,0,1.03064,-142.523,-55.277)">
                <path d="M1329.73,354.716C1471.1,307.814 1622.19,282.427 1779.17,282.427C2567.21,282.427 3206.99,922.213 3206.99,1710.25C3206.99,2498.29 2567.21,3138.08 1779.17,3138.08C991.133,3138.08 351.347,2498.29 351.347,1710.25C351.347,1226.63 592.308,798.849 960.61,540.52L960.61,2591.76C921.215,2630.32 893.753,2681.03 884.306,2737.79L884.421,2737.89C911.696,2761.63 939.867,2784.32 968.916,2805.85C1023.38,2846.21 1080.84,2882.52 1140.68,2914.34C1196.17,2943.85 1253.7,2969.51 1312.75,2991.04C1344.86,3002.75 1377.41,3013.21 1410.3,3022.48L1412.21,3023.01L1412.21,2781.66C1412.21,2706 1380.53,2637.69 1329.73,2589.28L1329.73,354.716ZM2080.22,3039.65C2687.72,2902.47 3141.99,2358.99 3141.99,1710.25C3141.99,958.088 2531.33,347.427 1779.17,347.427C1634.45,347.427 1494.98,370.032 1364.03,411.917L1364.03,1753.8C1397.47,1761.21 1430.5,1770.41 1462.9,1781.5C1523.74,1802.33 1582.35,1829.64 1637.46,1862.79C1684.31,1890.97 1728.64,1923.36 1769.75,1959.41C1814.61,1998.76 1855.65,2042.47 1892.08,2089.74C1928.35,2136.8 1960.05,2187.39 1986.54,2240.58C2010.67,2289.03 2030.47,2339.64 2045.61,2391.62C2063.56,2453.22 2074.94,2516.72 2079.57,2580.71C2081.59,2608.55 2082.33,2636.48 2081.83,2664.38C2081.59,2677.98 2081.03,2691.57 2080.22,2705.14L2080.22,3039.65ZM1040.66,488.269L1040.66,2537.82C1023.31,2545.37 1006.93,2554.71 991.741,2565.61L991.741,519.289C1007.81,508.634 1024.12,498.295 1040.66,488.269ZM1298.6,365.449L1298.6,2563.79C1282.09,2552.23 1264.2,2542.5 1245.24,2534.89L1245.24,385.767C1262.85,378.65 1280.65,371.874 1298.6,365.449ZM1129.61,438.615L1129.61,2516.43C1109.66,2517.68 1090.3,2521.13 1071.79,2526.55L1071.79,469.937C1090.8,459.068 1110.07,448.623 1129.61,438.615ZM1214.1,398.776L1214.1,2524.6C1196.94,2520.09 1179.09,2517.25 1160.74,2516.28L1160.74,423.144C1178.33,414.669 1196.12,406.544 1214.1,398.776ZM924.03,649.378C614.472,899.296 416.347,1281.82 416.347,1710.25C416.347,1832.25 432.413,1950.53 462.563,2063.16L463.872,2061.59C485.061,2036.27 507.54,2012.05 531.302,1989.12C584.35,1937.94 643.544,1893.14 707.258,1856.06C748.656,1831.97 791.947,1811.13 836.615,1793.84C865.246,1782.75 894.439,1773.17 924.03,1764.99L924.03,649.378Z" style="fill:rgb(248,197,32);"/>
            </g>
        </g>
    </g>
</svg>
