<?xml version="1.0" encoding="UTF-8" standalone="no"?>
<!DOCTYPE svg PUBLIC "-//W3C//DTD SVG 1.1//EN" "http://www.w3.org/Graphics/SVG/1.1/DTD/svg11.dtd">
<svg width="100%" height="100%" viewBox="0 0 2813 2734" version="1.1" xmlns="http://www.w3.org/2000/svg" xmlns:xlink="http://www.w3.org/1999/xlink" xml:space="preserve" xmlns:serif="http://www.serif.com/" style="fill-rule:evenodd;clip-rule:evenodd;stroke-linejoin:round;stroke-miterlimit:2;">
    <g transform="matrix(1,0,0,1,-844.925,-960.827)">
        <g>
            <path d="M1300.59,3004.45C1331.53,3043.32 1364.82,3080.26 1400.2,3115.03C1377.64,3135.96 1363.76,3149.44 1360.03,3154.14C1315.77,3209.7 1303.49,3207.77 1307.73,3257.26C1316.96,3364.93 1210.09,3488.85 1137.36,3515.68C1071.62,3539.92 1012.14,3539.01 965.495,3568.97C885.028,3620.66 853.974,3693.94 853.974,3693.94C827.502,3461.53 859.961,3315.42 940.184,3221.77C977.585,3178.11 1023.52,3149.1 1084.27,3123.1C1163.71,3089.1 1180.12,3118.85 1289.11,3015.04C1291.92,3012.36 1295.76,3008.81 1300.59,3004.45ZM3125.87,1411.37C3149.08,1389.43 3168.55,1370.53 3183.75,1355.1C3445.56,1089.31 3478.31,930.888 3570.47,974.459C3662.63,1018.03 3785.12,1206.1 3328.48,1507.83C3304.68,1523.55 3278.14,1541.95 3249.21,1562.72C3212.16,1508.98 3170.88,1458.38 3125.87,1411.37Z" style="fill:rgb(27,75,63);"/>
            <path d="M2250,960.827C2961.65,960.827 3539.41,1538.59 3539.41,2250.24C3539.41,2961.89 2961.65,3539.66 2250,3539.66C1538.35,3539.66 960.586,2961.89 960.586,2250.24C960.586,1538.59 1538.35,960.827 2250,960.827ZM1867.98,1119.23C1988.14,1080.1 2116.57,1058.92 2250,1058.92C2919.83,1058.92 3463.64,1592.63 3463.64,2250C3463.64,2907.37 2919.83,3441.08 2250,3441.08C1580.17,3441.08 1036.36,2907.37 1036.36,2250C1036.36,1846.57 1241.17,1489.72 1554.23,1274.22L1554.23,2985.35C1520.74,3017.51 1497.4,3059.81 1489.37,3107.17L1489.47,3107.25C1512.65,3127.05 1536.6,3145.98 1561.29,3163.94C1607.58,3197.61 1656.42,3227.89 1707.29,3254.44C1754.45,3279.06 1803.36,3300.46 1853.54,3318.42C1880.83,3328.19 1908.5,3336.92 1936.46,3344.65L1938.08,3345.1L1938.08,3143.76C1938.08,3080.64 1911.15,3023.66 1867.98,2983.28L1867.98,1119.23ZM2505.89,3358.97C3022.26,3244.53 3408.39,2791.17 3408.39,2250C3408.39,1622.55 2889.33,1113.15 2250,1113.15C2126.99,1113.15 2008.44,1132 1897.13,1166.94L1897.13,2286.33C1925.55,2292.51 1953.63,2300.18 1981.17,2309.44C2032.89,2326.81 2082.7,2349.59 2129.54,2377.24C2169.37,2400.76 2207.05,2427.77 2241.99,2457.85C2280.13,2490.67 2315,2527.13 2345.97,2566.56C2376.8,2605.82 2403.74,2648.02 2426.26,2692.39C2446.77,2732.82 2463.61,2775.03 2476.48,2818.39C2491.73,2869.78 2501.4,2922.75 2505.34,2976.13C2507.05,2999.35 2507.68,3022.65 2507.26,3045.93C2507.05,3057.27 2506.58,3068.6 2505.89,3079.93L2505.89,3358.97ZM1622.27,1230.63L1622.27,2940.35C1607.53,2946.65 1593.6,2954.44 1580.69,2963.53L1580.69,1256.51C1594.35,1247.62 1608.21,1239 1622.27,1230.63ZM1841.52,1128.18L1841.52,2962.02C1827.48,2952.37 1812.28,2944.25 1796.16,2937.91L1796.16,1145.13C1811.13,1139.19 1826.26,1133.54 1841.52,1128.18ZM1697.87,1189.21L1697.87,2922.5C1680.92,2923.55 1664.47,2926.43 1648.73,2930.95L1648.73,1215.34C1664.88,1206.28 1681.27,1197.56 1697.87,1189.21ZM1769.7,1155.98L1769.7,2929.32C1755.11,2925.56 1739.93,2923.19 1724.34,2922.38L1724.34,1176.31C1739.29,1169.24 1754.41,1162.46 1769.7,1155.98ZM1523.13,1365.03C1260.01,1573.51 1091.61,1892.61 1091.61,2250C1091.61,2351.77 1105.26,2450.44 1130.89,2544.39L1132,2543.08C1150.01,2521.96 1169.12,2501.76 1189.32,2482.63C1234.41,2439.94 1284.72,2402.56 1338.88,2371.63C1374.07,2351.54 1410.87,2334.15 1448.83,2319.73C1473.17,2310.48 1497.98,2302.48 1523.13,2295.66L1523.13,1365.03Z" style="fill:rgb(255,0,68);"/>
        </g>
    </g>
</svg>
