<svg width="214" height="214" fill="#000" viewBox="0 0 214 214" xmlns="http://www.w3.org/2000/svg"><title>instagram</title><path d="M107 19.28c28.57 0 31.953.109 43.237.624 10.433.476 16.098 2.218 19.868 3.684a33.151 33.151 0 0 1 12.303 8.004 33.152 33.152 0 0 1 8.004 12.303c1.466 3.77 3.209 9.436 3.685 19.868.514 11.283.623 14.667.623 43.238 0 28.572-.109 31.955-.623 43.239-.477 10.432-2.22 16.097-3.685 19.868a35.434 35.434 0 0 1-20.307 20.307c-3.77 1.466-9.435 3.209-19.868 3.684-11.28.515-14.665.624-43.238.624s-31.955-.109-43.238-.624c-10.432-.476-16.097-2.219-19.868-3.684a33.15 33.15 0 0 1-12.303-8.004 33.152 33.152 0 0 1-8.004-12.303c-1.465-3.77-3.208-9.436-3.684-19.868-.515-11.283-.624-14.667-.624-43.239 0-28.57.11-31.954.624-43.238.476-10.432 2.219-16.097 3.684-19.868a33.152 33.152 0 0 1 8.005-12.303 33.152 33.152 0 0 1 12.303-8.005c3.77-1.465 9.436-3.208 19.868-3.684 11.283-.515 14.667-.624 43.238-.624zM107 0C77.94 0 74.296.123 62.885.644c-11.39.52-19.167 2.328-25.973 4.974A52.45 52.45 0 0 0 17.96 17.959 52.45 52.45 0 0 0 5.615 36.911C2.972 43.717 1.164 51.495.646 62.884.123 74.295 0 77.941 0 107c0 29.06.123 32.705.646 44.116.52 11.39 2.328 19.167 4.974 25.973a52.45 52.45 0 0 0 12.341 18.952 52.449 52.449 0 0 0 18.952 12.341c6.806 2.646 14.584 4.454 25.973 4.974 11.412.52 15.056.644 44.115.644 29.06 0 32.705-.123 44.115-.644 11.39-.52 19.167-2.328 25.973-4.974a54.713 54.713 0 0 0 31.293-31.293c2.646-6.806 4.454-14.584 4.974-25.973.52-11.413.644-15.057.644-44.116 0-29.059-.123-32.705-.644-44.116-.52-11.389-2.328-19.167-4.974-25.973a52.45 52.45 0 0 0-12.341-18.951 52.45 52.45 0 0 0-18.953-12.345c-6.806-2.643-14.584-4.451-25.973-4.969C139.704.123 136.059 0 106.999 0H107z"/><path d="M107 52c-30.376 0-55 24.624-55 55s24.624 55 55 55 55-24.624 55-55-24.624-55-55-55zm0 90.701c-19.717 0-35.701-15.984-35.701-35.701 0-19.718 15.984-35.702 35.702-35.701 19.717 0 35.7 15.984 35.7 35.701S126.718 142.701 107 142.701z"/><circle cx="164" cy="50" r="13"/></svg>