<svg width="214" height="214" fill="#000" viewBox="0 0 214 214" xmlns="http://www.w3.org/2000/svg"><title>tumblr</title><path d="M107 214C47.906 214 0 166.094 0 107S47.906 0 107 0s107 47.906 107 107-47.906 107-107 107zm32.473-67.167c-2.524 1.198-7.35 2.24-10.949 2.329-10.865.289-12.974-7.592-13.061-13.305V93.83h27.254V73.39h-27.16V39H95.682c-.327 0-.898.285-.98 1.008C93.54 50.533 88.59 69.006 68 76.392V93.83h13.736v44.108c0 15.103 11.199 36.56 40.764 36.053 9.975-.17 21.054-4.323 23.5-7.909l-6.527-19.249z"/></svg>