<svg height="512pt" viewBox="0 -26 512 512" width="512pt" xmlns="http://www.w3.org/2000/svg"><path d="m347 0h-182c-90.980469 0-165 74.019531-165 165v31c0 8.285156 6.714844 15 15 15h75v234c0 8.285156 6.714844 15 15 15h302c8.285156 0 15-6.714844 15-15v-234h75c8.285156 0 15-6.714844 15-15v-31c0-90.980469-74.019531-165-165-165zm-27.746094 30c-6.789062 28.636719-32.574218 50-63.253906 50s-56.464844-21.363281-63.253906-50zm162.746094 151h-60v-37c0-8.285156-6.714844-15-15-15s-15 6.714844-15 15v286h-272v-286c0-8.285156-6.714844-15-15-15s-15 6.714844-15 15v37h-60v-16c0-73.5 59.046875-133.464844 132.195312-134.964844 7.226563 45.265625 46.539063 79.964844 93.804688 79.964844s86.578125-34.699219 93.804688-79.964844c73.148437 1.5 132.195312 61.464844 132.195312 134.964844zm0 0"/><path d="m298.5 167c-15.359375 0-29.800781 5.980469-40.65625 16.84375l-1.84375 1.839844-1.839844-1.839844c-10.863281-10.863281-25.300781-16.84375-40.660156-16.84375s-29.796875 5.980469-40.65625 16.84375c-10.863281 10.855469-16.84375 25.296875-16.84375 40.65625s5.980469 29.800781 16.84375 40.65625c.023438.027344.050781.058594.082031.082031l72.550781 71.449219c2.917969 2.875 6.71875 4.3125 10.523438 4.3125s7.605469-1.4375 10.523438-4.3125l72.554687-71.449219c.023437-.023437.054687-.054687.078125-.082031 10.863281-10.855469 16.84375-25.296875 16.84375-40.65625s-5.980469-29.800781-16.84375-40.65625c-10.855469-10.863281-25.296875-16.84375-40.65625-16.84375zm19.480469 76.910156-61.980469 61.035156-61.980469-61.035156c-5.171875-5.1875-8.019531-12.082031-8.019531-19.410156 0-7.347656 2.859375-14.25 8.054688-19.445312 5.195312-5.195313 12.101562-8.054688 19.445312-8.054688 7.347656 0 14.25 2.859375 19.445312 8.054688l12.449219 12.449218c2.8125 2.8125 6.625 4.394532 10.605469 4.394532s7.792969-1.582032 10.605469-4.394532l12.449219-12.449218c5.195312-5.195313 12.097656-8.054688 19.445312-8.054688s14.25 2.859375 19.445312 8.054688c5.195313 5.195312 8.054688 12.097656 8.054688 19.445312 0 7.328125-2.847656 14.222656-8.019531 19.410156zm0 0"/></svg>