<?xml version="1.0" encoding="iso-8859-1"?>
<!-- Generator: Adobe Illustrator 19.0.0, SVG Export Plug-In . SVG Version: 6.00 Build 0)  -->
<svg version="1.1" id="Capa_1" xmlns="http://www.w3.org/2000/svg" xmlns:xlink="http://www.w3.org/1999/xlink" x="0px" y="0px"
	 viewBox="0 0 512 512" style="enable-background:new 0 0 512 512;" xml:space="preserve">
<g>
	<g>
		<path d="M467,105.5c-8.529,0-77.68,0-90,0v-45c0-24.813-20.187-45-45-45H180c-24.813,0-45,20.187-45,45v45c-11.31,0-80.756,0-90,0
			c-24.813,0-45,20.187-45,45c0,11.219,0,288.465,0,301c0,24.813,20.187,45,45,45c22.168,0,404.583,0,422,0
			c24.813,0,45-20.187,45-45c0-11.219,0-288.465,0-301C512,125.687,491.813,105.5,467,105.5z M165,60.5c0-8.271,6.729-15,15-15h152
			c8.271,0,15,6.729,15,15v45H165V60.5z M30,150.5c0-8.271,6.729-15,15-15h45v15c0,24.813-20.187,45-45,45H30V150.5z M90,466.5H45
			c-8.271,0-15-6.729-15-15v-45h15c24.813,0,45,20.187,45,45V466.5z M482,451.5c0,8.271-6.729,15-15,15h-45v-15
			c0-24.813,20.187-45,45-45h15V451.5z M482,376.5h-15c-41.355,0-75,33.645-75,75v15H120v-15c0-41.355-33.645-75-75-75H30v-151h15
			c41.355,0,75-33.645,75-75v-15h272v15c0,41.355,33.645,75,75,75h15V376.5z M482,195.5h-15c-24.813,0-45-20.187-45-45v-15h45
			c8.271,0,15,6.729,15,15V195.5z"/>
	</g>
</g>
<g>
	<g>
		<path d="M358.556,232.188C345.974,218.202,328.552,210.5,309.5,210.5c-21.118,0-39.609,9.754-53.5,28.216
			c-13.891-18.462-32.382-28.216-53.5-28.216c-19.052,0-36.474,7.702-49.056,21.688C141.55,245.407,135,263.049,135,281.864
			c0,42.882,35.423,72.478,84.451,113.441c8.567,7.158,17.427,14.561,26.787,22.583c2.809,2.407,6.285,3.611,9.762,3.611
			s6.953-1.204,9.762-3.611c9.361-8.023,18.221-15.426,26.789-22.585C341.578,354.342,377,324.745,377,281.864
			C377,263.05,370.45,245.408,358.556,232.188z M273.316,372.282c-5.622,4.697-11.369,9.499-17.316,14.524
			c-5.947-5.025-11.692-9.826-17.314-14.523C194.314,335.21,165,310.718,165,281.864c0-23.582,16.122-41.364,37.5-41.364
			c28.001,0,38.661,32.812,39.158,34.393c1.93,6.301,7.748,10.607,14.342,10.607c6.613,0,12.445-4.33,14.358-10.66
			c0.104-0.344,10.708-34.34,39.142-34.34c21.378,0,37.5,17.782,37.5,41.364C347,310.718,317.687,335.21,273.316,372.282z"/>
	</g>
</g>
<g>
</g>
<g>
</g>
<g>
</g>
<g>
</g>
<g>
</g>
<g>
</g>
<g>
</g>
<g>
</g>
<g>
</g>
<g>
</g>
<g>
</g>
<g>
</g>
<g>
</g>
<g>
</g>
<g>
</g>
</svg>
